<?xml version="1.0" encoding="utf-8"?><!DOCTYPE svg PUBLIC "-//W3C//DTD SVG 1.1//EN" "http://www.w3.org/Graphics/SVG/1.1/DTD/svg11.dtd"><svg version="1.1" xmlns="http://www.w3.org/2000/svg" xmlns:xlink="http://www.w3.org/1999/xlink" viewBox="0 0 900 750" width="900" height="750"><g class="svg-logo"><g class="base"><g class="logo-element shield"><path d="M449.971,614.165l-1.331-0.331c-2.359-0.589-58.506-15.235-124.199-86.152c-34.585-37.338-50.225-79.728-57.254-108.715c-7.464-30.776-7.096-52.903-7.053-54.689V145.15l5.032-0.431c1.022-0.086,103.1-8.73,184.834-8.73c81.733,0,183.812,8.645,184.833,8.73l5.031,0.431v219.128c0.043,1.777,0.405,23.906-7.067,54.69c-7.034,28.985-22.675,71.374-57.243,108.71c-65.677,70.938-121.893,85.567-124.253,86.155L449.971,614.165zM271.134,155.269l-0.001,209.239c-0.024,0.864-1.635,87.67,61.378,155.697c57.978,62.59,108.676,79.933,117.456,82.575c8.788-2.664,59.738-20.168,117.516-82.573c62.984-68.03,61.408-154.837,61.385-155.706l-0.003-0.151V155.269c-21.532-1.727-107.954-8.279-178.865-8.279C379.088,146.989,292.667,153.542,271.134,155.269z" fill="rgba(230,120,52,1)" stroke="none" stroke-width="0"></path></g></g><g class="text"><g transform="translate(450,245)" text-anchor="middle" class="logo-element single-line"><path d="M21.90-28.49L25.23-44.13C28.42-43.45 31.62-42.84 34.75-42.84C40.05-44.00 40.26-48.14 41.21-51.00C39.30-50.39 37.20-50.18 35.09-50.18C30.80-50.18 26.52-51.00 23.80-51.00C7.00-51.00 0.61-42.36 0.61-33.32C0.61-28.42 3.20-26.72 7.89-26.72C7.82-27.34 6.94-27.88 6.94-31.35C6.94-42.16 10.54-45.15 15.78-45.42L5.98 0L15.78 0L20.81-23.46L31.01-23.46L32.37-28.49ZM38.69-34L31.48 0L41.28 0L46.92-26.66C48.48-28.08 49.57-28.83 51.61-28.83C53.65-28.83 51.75-24.34 55.56-24.34C58.89-24.34 60.66-27.27 60.66-29.65C60.66-32.23 58.82-34 55.76-34C52.90-34 50.18-32.50 47.74-30.60L48.48-34ZM77.59-34.68C68.20-34.68 59.70-27.47 59.70-10.74C59.70-2.65 62.83 0.41 70.11 0.41C76.91 0.41 84.32-6.32 85.61-19.99C89.56-21.08 93.09-23.32 95.20-25.98L94.93-27.40C92.41-26.38 90.98-24.07 87.79-24.07C86.84-24.07 86.22-24.28 85.82-24.68C85.68-29.65 84.05-34.68 77.59-34.68ZM73.30-6.19C70.65-6.19 68.75-7.28 68.75-11.36C68.75-16.80 71.47-30.67 77.86-30.67C79.76-30.67 80.51-29.38 80.72-27.13C78.88-26.45 77.72-24.34 77.72-22.37C77.72-20.74 78.61-19.31 80.58-19.31C79.76-12.72 77.45-6.19 73.30-6.19ZM119.27-23.87C119.41-24.41 119.41-24.96 119.41-25.50C119.41-30.06 115.26-34 111.59-34C108.60-34 105.47-32.37 102.68-30.33L103.50-34L93.70-34L86.50 0L96.29 0L102.07-27.47C103.50-28.42 104.72-28.90 106.35-28.90C108.19-28.90 109.48-27.34 109.48-24.89C109.48-24.34 109.41-23.73 109.28-23.12L106.69-10.88C106.42-9.59 106.28-8.50 106.28-7.41C106.28-2.31 109.41 0 114.72 0C120.02 0 125.19-7.34 128.32-10.47L126.00-10.47C123.28-8.30 122.26-6.19 119.54-6.19C116.89-6.19 116.14-7.21 116.14-8.70C116.14-9.38 116.28-10.13 116.48-10.88ZM130.36-43.38L128.32-34L126.07-34L125.53-31.28L127.77-31.28C126.62-25.43 123.08-11.02 123.08-7.41C123.08-2.31 126.28 0 131.51 0C136.82 0 144.50-9.04 147.63-12.17L145.32-12.17C142.60-10.00 139.06-6.19 136.34-6.19C133.62-6.19 132.94-7.21 132.94-8.77C132.94-9.11 132.87-9.79 137.56-31.28L141.64-31.28L142.19-34L138.11-34C139.40-40.12 140.42-44.74 140.42-44.74ZM159.12-20.47L145.52-20.47L144.30-15.10L157.96-15.10ZM170.68-10.74C170.68-11.56 170.75-12.58 170.88-13.67C177.34-14.48 186.25-19.24 186.25-27.54C186.25-32.30 183.12-34.61 177.55-34.61C165.17-34.61 161.50-19.45 161.50-10.81C161.50-4.96 165.04 0 171.56 0C180.34 0 186.86-6.87 190.74-13.87L187.68-13.87C185.30-8.84 179.59-4.90 176.26-4.90C173.60-4.90 170.68-6.26 170.68-10.74ZM182.17-27.20C182.10-22.37 177.68-17 171.43-16.93C172.86-23.32 175.98-31.01 179.79-31.01C181.83-31.01 182.17-28.63 182.17-27.20ZM217.53-23.87C217.67-24.41 217.67-24.96 217.67-25.50C217.67-30.06 213.52-34 209.85-34C206.86-34 203.73-32.37 200.94-30.33L201.76-34L191.96-34L184.76 0L194.55 0L200.33-27.47C201.76-28.42 202.98-28.90 204.61-28.90C206.45-28.90 207.74-27.34 207.74-24.89C207.74-24.34 207.67-23.73 207.54-23.12L204.95-10.88C204.68-9.59 204.54-8.50 204.54-7.41C204.54-2.31 207.67 0 212.98 0C218.28 0 223.45-7.34 226.58-10.47L224.26-10.47C221.54-8.30 220.52-6.19 217.80-6.19C215.15-6.19 214.40-7.21 214.40-8.70C214.40-9.38 214.54-10.13 214.74-10.88ZM245.68-46.24L242.69-32.23C241.47-33.25 239.77-33.93 238.14-33.93C224.54-33.93 220.32-19.92 220.32-8.23C220.32-4.22 222.22 0.41 228.75 0.41C232.90 0.41 235.96-2.38 238.00-5.17C238.88-1.63 241.81 0 246.23 0C251.53 0 259.22-9.04 262.34-12.17L260.03-12.17C257.31-10.00 253.78-6.19 251.06-6.19C248.40-6.19 247.66-7.21 247.66-8.70C247.66-9.38 247.86-10.13 248.00-10.88L255.75-47.60ZM238.68-30.12C239.63-30.12 240.92-29.85 242.01-28.90L238.20-10.88C238.00-10.06 237.86-9.32 237.80-8.64C236.50-6.73 235.01-5.24 233.44-5.24C231.74-5.24 229.50-5.98 229.50-10.06C229.50-19.31 233.58-30.12 238.68-30.12Z" fill="rgba(196,196,196,1)" transform="translate(-134,0)"></path></g><g text-anchor="middle" transform="translate(450,420)" class="logo-element x-letters"><path d="M19.93-97L23.22-90.95L9.88-84.85L23.22-78.86L21.17-73.24L3.78-81.34L3.78-88.90ZM46.39-70L46.39-77.07L42.50-77.07L42.50-84.69C42.50-87.01 43.15-89.71 45.90-89.71C49.09-89.71 49.09-86.52 49.09-84.69L49.09-70L62.96-70L62.96-77.07L60.43-77.07L60.43-86.09C60.43-91.76 59.35-97.97 50.98-97.97C47.03-97.97 43.09-94.62 42.50-93.65L42.50-110.50L29.43-110.50L29.43-103.48L31.70-103.48L31.70-77.07L29.43-77.07L29.43-70ZM67.61-94.68L73.01-97.22L73.01-77.18L67.61-77.18L67.61-70L89.21-70L89.21-77.18L84.19-77.18L84.19-107.75L74.57-107.75C70.63-103.05 68.20-102.18 65.12-100.67ZM97.63-97L94.34-90.95L107.68-84.85L94.34-78.86L96.39-73.24L113.78-81.34L113.78-88.90Z" fill="rgba(196,196,196,1)" transform="translate(-56,0)"></path><path d="M87.12 0L87.12-7.07L83.93-7.07L83.93-40.50L71.40-40.50L71.40-33.53L73.67-33.53L73.67-7.07L71.35-7.07L71.35 0ZM103.59 0.70C111.80 0.70 118.44-4.43 118.33-13.39C118.17-22.41 111.85-27.54 103.32-27.65C95.87-27.65 88.58-22.63 88.52-13.61C88.41-4.05 95.87 0.70 103.59 0.70ZM103.59-6.21C101.32-6.21 99.59-9.13 99.59-13.55C99.59-17.50 101.21-20.63 103.32-20.63C105.86-20.57 107.26-17.44 107.26-13.39C107.26-9.34 105.91-6.21 103.59-6.21ZM120.27 3.94L120.27 11.02L136.42 11.02L136.42 3.94L133.50 3.94L133.50-1.51C133.88-1.19 136.04 0.59 140.52 0.59C147.49 0.59 152.84-4.70 152.84-13.28C152.84-20.95 148.52-27.43 140.09-27.43C136.85-27.43 134.58-25.87 133.56-25.11L132.64-27L120.27-27L120.27-19.82L122.54-19.82L122.54 3.94ZM141.23-13.18C141.23-9.07 139.66-6.43 137.39-6.43C135.34-6.43 133.50-9.23 133.50-12.91C133.29-17.17 135.23-19.82 137.34-19.82C139.71-19.82 141.23-16.42 141.23-13.18ZM177.30-8.96C174.38-6.53 171.57-6.37 169.74-6.37C165.20-6.37 164.50-9.34 164.18-10.80L181.19-10.80C182.32-13.88 181.73-18.04 181.08-19.93C179.51-24.46 174.60-27.76 168.17-27.76C160.02-27.76 153.65-22.52 153.65-13.66C153.65-3.29 161.21 0.97 167.90 0.97C173.52 0.97 177.84-0.27 181.83-3.73ZM164.34-16.15C164.45-17.50 165.20-20.47 168.50-20.47C171.95-20.47 172.44-18.20 172.49-16.15ZM199.28 0L199.28-7.07L196.58-7.07L196.58-12.64C196.58-17.39 199.33-18.63 204.19-18.63L204.19-28.35C198.63-28.35 197.22-26.14 195.82-23.54L194.20-27L184.05-27L184.05-19.98L186.37-19.98L186.37-7.07L183.99-7.07L183.99 0Z" fill="rgba(196,196,196,1)" transform="translate(-68,0)"></path><path d="M19.93 43L23.22 49.05L9.88 55.15L23.22 61.14L21.17 66.76L3.78 58.66L3.78 51.10ZM49.79 30.53L34.13 78.37L25.38 78.37L41.04 30.53ZM68.09 70L68.09 62.93L64.21 62.93L64.21 55.31C64.21 52.99 64.85 50.29 67.61 50.29C70.79 50.29 70.79 53.48 70.79 55.31L70.79 70L84.67 70L84.67 62.93L82.13 62.93L82.13 53.91C82.13 48.24 81.05 42.03 72.68 42.03C68.74 42.03 64.80 45.38 64.21 46.35L64.21 29.50L51.14 29.50L51.14 36.52L53.41 36.52L53.41 62.93L51.14 62.93L51.14 70ZM89.32 45.32L94.72 42.78L94.72 62.82L89.32 62.82L89.32 70L110.92 70L110.92 62.82L105.89 62.82L105.89 32.25L96.28 32.25C92.34 36.95 89.91 37.82 86.83 39.33ZM119.34 43L116.05 49.05L129.38 55.15L116.05 61.14L118.10 66.76L135.49 58.66L135.49 51.10Z" fill="rgba(196,196,196,1)" transform="translate(-68,0)"></path><path d="M-68.65 0L-52.40 0C-39.11 0-31.66-7.07-31.66-19.39C-31.66-29.70-39.11-37.75-52.18-37.75L-68.65-37.75L-68.65-30.62L-65.30-30.62L-65.30-7.18L-68.65-7.18ZM-54.23-7.18L-54.23-30.62L-52.18-30.62C-46.46-30.62-44.08-25.16-44.08-19.39C-44.08-12.64-46.46-7.29-52.18-7.18ZM-7.20-8.96C-10.11-6.53-12.92-6.37-14.76-6.37C-19.29-6.37-20.00-9.34-20.32-10.80L-3.31-10.80C-2.18-13.88-2.77-18.04-3.42-19.93C-4.98-24.46-9.90-27.76-16.32-27.76C-24.48-27.76-30.85-22.52-30.85-13.66C-30.85-3.29-23.29 0.97-16.59 0.97C-10.98 0.97-6.66-0.27-2.66-3.73ZM-20.16-16.15C-20.05-17.50-19.29-20.47-16.00-20.47C-12.54-20.47-12.06-18.20-12.00-16.15ZM15.75-8.75C15.64-9.88 15.05-12.37 14.35-14.42L11.86-20.14L14.56-20.14L14.56-27L-1.85-27L-1.85-20.14L0.69-20.14L10.73 0L19.10 0L28.44-20.14L31.25-20.14L31.25-27L17.32-27L17.32-20.14L20.18-20.14L17.59-14.69C16.67-12.58 16.02-9.88 15.97-8.75ZM55.17-8.96C52.26-6.53 49.45-6.37 47.61-6.37C43.08-6.37 42.37-9.34 42.05-10.80L59.06-10.80C60.19-13.88 59.60-18.04 58.95-19.93C57.39-24.46 52.47-27.76 46.05-27.76C37.89-27.76 31.52-22.52 31.52-13.66C31.52-3.29 39.08 0.97 45.78 0.97C51.39 0.97 55.71-0.27 59.71-3.73ZM42.21-16.15C42.32-17.50 43.08-20.47 46.37-20.47C49.83-20.47 50.31-18.20 50.37-16.15Z" fill="rgba(196,196,196,1)" transform="translate(-66,0)"></path></g></g></g></svg>